<svg width="20" height="17" viewBox="0 0 20 17" fill="none" xmlns="http://www.w3.org/2000/svg">
<path d="M10 12.6666H10.0083M10 5.99991V9.33324M8.57502 1.71659C8.72358 1.47168 8.93275 1.26919 9.18235 1.12866C9.43196 0.988133 9.71357 0.914307 10 0.914307C10.2865 0.914307 10.5681 0.988133 10.8177 1.12866C11.0673 1.26919 11.2765 1.47168 11.425 1.71659L18.4834 13.4999C18.6289 13.7519 18.7059 14.0377 18.7067 14.3287C18.7075 14.6197 18.6321 14.9059 18.488 15.1587C18.3439 15.4115 18.1361 15.6222 17.8853 15.7698C17.6344 15.9174 17.3494 15.9967 17.0583 15.9999H2.94168C2.65068 15.9967 2.36559 15.9174 2.11477 15.7698C1.86396 15.6222 1.65615 15.4115 1.51204 15.1587C1.36793 14.9059 1.29253 14.6197 1.29334 14.3287C1.29416 14.0377 1.37116 13.7519 1.51668 13.4999L7.50679 3.49991L8.33333 2.12007L8.57502 1.71659Z" stroke="#F79009" stroke-width="1.5" stroke-linecap="round" stroke-linejoin="round"/>
</svg>
